<svg id="Layer_1" data-name="Layer 1" xmlns="http://www.w3.org/2000/svg" viewBox="0 0 61.86 13.29"><defs><style>.cls-1{fill:#00000;}</style></defs><title>logo</title><path class="cls-1" d="M13.45,5.29c-.08-.11-.17-.24-.27-.4l-.12-.16c-.36-.54-.7-1.06-.47-1.56a.69.69,0,0,1,.92-.32.11.11,0,0,0,.16-.06s0-.12-.11-.16a1.08,1.08,0,0,0-.88,0,1.26,1.26,0,0,0-.65.76,2,2,0,0,0,.44,1.77l.06.09c.12.19.23.33.32.46s.2.27.3.44a1.35,1.35,0,0,1,.15,1.23c-.09.21-.45.85-1.55.47-.09,0-.16,0-.18.07s0,.12.1.16a1.83,1.83,0,0,0,.74.16,1.67,1.67,0,0,0,1.52-.93,1.81,1.81,0,0,0-.31-1.8C13.57,5.47,13.51,5.39,13.45,5.29Z" transform="translate(-1.68 -1.43)"/><path class="cls-1" d="M16.19,5.28a4.72,4.72,0,0,0-.27-.4,1.63,1.63,0,0,0-.11-.17c-.36-.54-.7-1-.47-1.56a.66.66,0,0,1,.91-.31.12.12,0,0,0,.16-.06s0-.13-.11-.17a1.06,1.06,0,0,0-.87,0,1.26,1.26,0,0,0-.66.75,2,2,0,0,0,.45,1.78l.06.08a5.11,5.11,0,0,0,.31.46c.11.15.2.27.31.44A1.35,1.35,0,0,1,16,7.4c-.08.2-.44.85-1.55.47a.13.13,0,0,0-.17.06c0,.05,0,.12.1.16a1.83,1.83,0,0,0,.74.16,1.66,1.66,0,0,0,1.52-.93,1.79,1.79,0,0,0-.31-1.79A3,3,0,0,0,16.19,5.28Z" transform="translate(-1.68 -1.43)"/><path class="cls-1" d="M44.34,7.93H41.77V4.08h2.12A.14.14,0,0,0,44,3.94a.15.15,0,0,0-.14-.15H41.77V3H43.6a.14.14,0,1,0,0-.28H41V8.22h3.32a.15.15,0,0,0,.15-.14A.15.15,0,0,0,44.34,7.93Z" transform="translate(-1.68 -1.43)"/><polygon class="cls-1" points="61.01 0.1 60.34 0.1 59.79 1.05 60.22 0.93 61.01 0.1"/><path class="cls-1" d="M63.39,7.93H60.83V4.08h2.11a.15.15,0,1,0,0-.29H60.83V3h1.82a.14.14,0,1,0,0-.28H60.07V8.22h3.32a.15.15,0,0,0,.15-.14A.15.15,0,0,0,63.39,7.93Z" transform="translate(-1.68 -1.43)"/><path class="cls-1" d="M31.57,7.93H29V4.08h2.12a.14.14,0,0,0,.14-.14.15.15,0,0,0-.14-.15H29V3h1.82a.14.14,0,1,0,0-.28H28.24V8.22h3.33a.14.14,0,0,0,.14-.14A.15.15,0,0,0,31.57,7.93Z" transform="translate(-1.68 -1.43)"/><path class="cls-1" d="M27.24,5.56H27c-.26,0-.39,0-.45.13a.19.19,0,0,0,0,.19v0a.88.88,0,0,1,.07.39V7.53c0,.07-.08.19-.48.32a2.37,2.37,0,0,1-.78.11,2,2,0,0,1-1.44-.55,2.76,2.76,0,0,1-.74-2A2.45,2.45,0,0,1,24.54,3a2.07,2.07,0,0,1,1.9.22c.13.1.18.14.23.14a.18.18,0,0,0,.12-.07.14.14,0,0,0,0-.11.24.24,0,0,0-.08-.13,2.48,2.48,0,0,0-1.41-.44,2.82,2.82,0,0,0-2.93,2.5,2.94,2.94,0,0,0,.76,2.24,2.9,2.9,0,0,0,2.09.86h.06a2.55,2.55,0,0,0,2-.84s0,0,0-.06V6.13a1.32,1.32,0,0,1,0-.33,1.3,1.3,0,0,1,0-.13,0,0,0,0,0,0-.06S27.36,5.56,27.24,5.56Z" transform="translate(-1.68 -1.43)"/><path class="cls-1" d="M45.05,8h0a.12.12,0,0,0,0,.13.17.17,0,0,0,.13.07.19.19,0,0,0,.18-.11c.1-.21.23-.51.4-.9h2.67a.14.14,0,0,0,.14-.14.15.15,0,0,0-.14-.15H45.9C46.42,5.71,47,4.1,47.21,3.67l2.13,4.55h.78L47.43,2.47Z" transform="translate(-1.68 -1.43)"/><path class="cls-1" d="M17.34,8h0a.18.18,0,0,0,0,.13.19.19,0,0,0,.13.07.18.18,0,0,0,.18-.11c.1-.21.24-.51.41-.9h2.66a.15.15,0,0,0,.15-.14.15.15,0,0,0-.15-.15H18.2c.51-1.22,1.14-2.83,1.3-3.26l2.13,4.55h.78L19.72,2.47Z" transform="translate(-1.68 -1.43)"/><path class="cls-1" d="M6.09,8h0a.18.18,0,0,0,0,.13.17.17,0,0,0,.13.07.19.19,0,0,0,.18-.11c.1-.21.24-.51.4-.9H9.57a.14.14,0,0,0,.14-.14.15.15,0,0,0-.14-.15H6.94C7.46,5.71,8.09,4.1,8.25,3.67l2.13,4.55h.78L8.47,2.47Z" transform="translate(-1.68 -1.43)"/><path class="cls-1" d="M59.46,2.58H55.35a.14.14,0,0,0-.14.14.15.15,0,0,0,.14.15H57V8.19h.76V2.87h1.67a.15.15,0,0,0,.15-.15A.15.15,0,0,0,59.46,2.58Z" transform="translate(-1.68 -1.43)"/><path class="cls-1" d="M52.75,8.27a2,2,0,0,0,2-2.06V2.76a.16.16,0,0,0-.31,0V6.1a1.64,1.64,0,0,1-1.54,1.76,1.53,1.53,0,0,1-1.53-1.61v-3a1.32,1.32,0,0,1,0-.33.86.86,0,0,1,0-.13.13.13,0,0,0,0-.06.24.24,0,0,0-.16-.06c-.34,0-.66.06-.71.19a.25.25,0,0,0,0,.15,0,0,0,0,1,0,0V3a.63.63,0,0,1,0,.25V6.17a2,2,0,0,0,2.18,2.1" transform="translate(-1.68 -1.43)"/><path class="cls-1" d="M38.06,4.76c-.07,0-.06,0,0-.06h0a1.44,1.44,0,0,0,1.19-1.36c0-1-1-1.59-2.53-1.57a3.81,3.81,0,0,0-1.24.13c-.06,0,0,.11,0,.15v.06a.73.73,0,0,1,0,.23V8.19h1.74c1.69,0,2.82-.66,2.82-1.81C40.09,5.41,39,4.79,38.06,4.76Zm-1.67-2.7h.23c1.15,0,1.82.5,1.82,1.29s-.52,1.28-1.52,1.28h-.53Zm.78,5.84h-.78v-3h.87c1.27,0,2,.51,2,1.45S38.38,7.9,37.17,7.9Z" transform="translate(-1.68 -1.43)"/><path class="cls-1" d="M3.75,1.43c-1.45,0-1.87.07-2,.19s0,.11,0,.15a0,0,0,0,1,0,0v0a.5.5,0,0,1,.05.24l0,6.14h.91V6.09H3.75c1.71,0,2.87-.93,2.87-2.34S5.46,1.45,3.75,1.43ZM3.42,5.8H2.67V1.71h.75c1.63,0,2.38.94,2.38,2A2.13,2.13,0,0,1,3.42,5.8Z" transform="translate(-1.68 -1.43)"/><path class="cls-1" d="M24,13c-.48,1.27-.74,1.48-1.29,1.46a1.31,1.31,0,0,1-.84-.36l-.12.13a1.65,1.65,0,0,0,1.07.47c.86,0,1.39-.41,1.83-1.61.24-.68.4-1.07.75-1.24a1,1,0,0,1,.41-.09,1.27,1.27,0,0,1,.67.19l.09-.14a1.6,1.6,0,0,0-.83-.26C25,11.57,24.41,12,24,13Z" transform="translate(-1.68 -1.43)"/><polygon class="cls-1" points="25.84 11.72 24.82 11.72 24.82 10.69 24.25 10.69 24.25 13.01 24.82 13.01 24.82 11.88 25.84 11.88 25.84 13.01 26.41 13.01 26.41 10.69 25.84 10.69 25.84 11.72"/><rect class="cls-1" x="26.89" y="10.69" width="0.57" height="2.32"/><path class="cls-1" d="M30.68,13.24c-.26.86-.41,1.13-.76,1.12a.85.85,0,0,1-.52-.19l-.09.13a1.23,1.23,0,0,0,.69.25c.61,0,.95-.37,1.2-1,.05-.12.1-.27.15-.42.19-.66.38-.88.68-.9a.61.61,0,0,1,.37.1l.08-.14A.88.88,0,0,0,32,12c-.59,0-1,.39-1.29,1.22Z" transform="translate(-1.68 -1.43)"/><polygon class="cls-1" points="31.52 12.84 31.52 11.88 32.46 11.88 32.46 11.71 31.52 11.71 31.52 10.85 32.58 10.85 32.58 10.69 30.95 10.69 30.95 13.01 32.58 13.01 32.58 12.84 31.52 12.84"/><rect class="cls-1" x="33" y="10.69" width="0.57" height="2.32"/><path class="cls-1" d="M39.64,12.22a.82.82,0,0,1,.34.07c.31.15.43.5.43,1s-.12.83-.43,1a.82.82,0,0,1-.34.07.78.78,0,0,1-.34-.07c-.32-.15-.43-.5-.43-1s.11-.84.43-1A.78.78,0,0,1,39.64,12.22Zm0,2.25a1.74,1.74,0,0,0,.51-.07,1.18,1.18,0,0,0,0-2.25,1.89,1.89,0,0,0-1,0,1.18,1.18,0,0,0,0,2.25A1.74,1.74,0,0,0,39.64,14.47Z" transform="translate(-1.68 -1.43)"/><path class="cls-1" d="M35.74,12.11h1a1.17,1.17,0,1,1,0,2.33h-1Zm.57,2.16h.41c.41,0,.75-.23.75-1s-.34-1-.75-1h-.41Z" transform="translate(-1.68 -1.43)"/></svg>
